<mxfile host="app.diagrams.net" agent="Mozilla/5.0 (X11; Ubuntu; Linux x86_64; rv:134.0) Gecko/20100101 Firefox/134.0" version="26.0.10">
  <diagram name="Page-1" id="ahD3JFqW59ySNAQjSEf0">
    <mxGraphModel dx="952" dy="526" grid="1" gridSize="10" guides="1" tooltips="1" connect="1" arrows="1" fold="1" page="1" pageScale="1" pageWidth="850" pageHeight="1100" math="0" shadow="0">
      <root>
        <mxCell id="0" />
        <mxCell id="1" parent="0" />
        <mxCell id="eZgw8Ieda-kZLaANVyQH-3" value="Atomic Motion" style="rounded=1;whiteSpace=wrap;html=1;align=center;verticalAlign=bottom;arcSize=7;" vertex="1" parent="1">
          <mxGeometry x="380" y="220" width="210" height="150" as="geometry" />
        </mxCell>
        <mxCell id="eZgw8Ieda-kZLaANVyQH-2" value="M5Atom" style="rounded=1;whiteSpace=wrap;html=1;" vertex="1" parent="1">
          <mxGeometry x="390" y="230" width="110" height="50" as="geometry" />
        </mxCell>
        <mxCell id="eZgw8Ieda-kZLaANVyQH-4" value="Battery 16340" style="rounded=1;whiteSpace=wrap;html=1;" vertex="1" parent="1">
          <mxGeometry x="390" y="290" width="110" height="50" as="geometry" />
        </mxCell>
        <mxCell id="eZgw8Ieda-kZLaANVyQH-5" value="Grove&lt;br&gt;Port B" style="rounded=1;whiteSpace=wrap;html=1;" vertex="1" parent="1">
          <mxGeometry x="520" y="230" width="60" height="50" as="geometry" />
        </mxCell>
        <mxCell id="eZgw8Ieda-kZLaANVyQH-6" value="Grove&lt;br&gt;Port C" style="rounded=1;whiteSpace=wrap;html=1;" vertex="1" parent="1">
          <mxGeometry x="520" y="290" width="60" height="50" as="geometry" />
        </mxCell>
      </root>
    </mxGraphModel>
  </diagram>
</mxfile>
